<svg  class="icon" viewBox="0 0 1024 1024" version="1.1"
    xmlns="http://www.w3.org/2000/svg"  xmlns:xlink="http://www.w3.org/1999/xlink"
    width="200" height="200">
    <path
        d="M168.805099 269.206999m44.340501-25.6l0 0q44.340501-25.6 69.940501 18.7405l51.2 88.681002q25.6 44.340501-18.740501 69.9405l0 0q-44.340501 25.6-69.940501-18.7405l-51.2-88.681002q-25.6-44.340501 18.740501-69.9405Z"
        fill="#8BE1A3"></path>
    <path
        d="M871.874991 269.204022m-44.340501-25.6l0 0q-44.340501-25.6-69.9405 18.7405l-51.2 88.681002q-25.6 44.340501 18.7405 69.940501l0 0q44.340501 25.6 69.940501-18.740501l51.2-88.681002q25.6-44.340501-18.740501-69.9405Z"
        fill="#8BE1A3"></path>
    <path
        d="M51.328 761.472c0.0768-0.896 0.1024-1.6384 0.1024-2.2528C51.4304 495.8336 289.2544 307.2 511.936 307.2c222.6944 0 460.6976 188.6336 460.6976 452.9664 0 0.5504 0.0256 1.1776 0.064 1.92A53.888 53.888 0 0 1 918.912 819.2H105.1008a53.888 53.888 0 0 1-53.76-57.728z"
        fill="#8BE1A3"></path>
    <path d="M358.4 665.6m-51.2 0a51.2 51.2 0 1 0 102.4 0 51.2 51.2 0 1 0-102.4 0Z"
        fill="#58C49D"></path>
    <path d="M665.6 665.6m-51.2 0a51.2 51.2 0 1 0 102.4 0 51.2 51.2 0 1 0-102.4 0Z"
        fill="#58C49D"></path>
</svg>